HIERARCHY
ROOT hip
{
	OFFSET 0.000000 0.000000 0.000000 
	CHANNELS 6 Xposition Yposition Zposition Xrotation Zrotation Yrotation
	JOINT abdomen
	{
		OFFSET 0.000000 3.402643 0.000000 
		CHANNELS 3 Xrotation Zrotation Yrotation
		JOINT chest
		{
			OFFSET 0.000000 8.438565 -0.680529 
			CHANNELS 3 Xrotation Zrotation Yrotation
			JOINT neck
			{
				OFFSET 0.000000 10.207942 -0.272212 
				CHANNELS 3 Xrotation Zrotation Yrotation
				JOINT head
				{
					OFFSET 0.000000 3.130431 0.000000 
					CHANNELS 3 Xrotation Zrotation Yrotation
					End Site
					{
						OFFSET 0.000000 3.130435 0.000000 
					}
				}
			}
			JOINT lCollar
			{
				OFFSET 3.470700 6.669187 -0.816635 
				CHANNELS 3 Yrotation Zrotation Xrotation
				JOINT lShldr
				{
					OFFSET 3.198488 0.000000 0.000000 
					CHANNELS 3 Zrotation Yrotation Xrotation
					JOINT lForeArm
					{
						OFFSET 10.139888 0.000000 0.000000 
						CHANNELS 3 Yrotation Zrotation Xrotation
						JOINT lHand
						{
							OFFSET 8.370511 0.000000 0.000000 
							CHANNELS 3 Zrotation Yrotation Xrotation
							End Site
							{
								OFFSET 4.083176 0.000000 0.000000 
							}
						}
					}
				}
			}
			JOINT rCollar
			{
				OFFSET -3.470700 6.669187 -0.816635 
				CHANNELS 3 Yrotation Zrotation Xrotation
				JOINT rShldr
				{
					OFFSET -3.198488 0.000000 0.000000 
					CHANNELS 3 Zrotation Yrotation Xrotation
					JOINT rForeArm
					{
						OFFSET -10.139888 0.000000 0.000000 
						CHANNELS 3 Yrotation Zrotation Xrotation
						JOINT rHand
						{
							OFFSET -8.370511 0.000000 0.000000 
							CHANNELS 3 Zrotation Yrotation Xrotation
							End Site
							{
								OFFSET -4.083176 0.000000 0.000000 
							}
						}
					}
				}
			}
		}
	}
	JOINT lThigh
	{
		OFFSET 5.308129 -1.633274 1.361059 
		CHANNELS 3 Xrotation Zrotation Yrotation
		JOINT lShin
		{
			OFFSET -2.041588 -20.007561 0.000000 
			CHANNELS 3 Xrotation Zrotation Yrotation
			JOINT lFoot
			{
				OFFSET 0.000000 -19.190928 -1.224953 
				CHANNELS 3 Xrotation Yrotation Zrotation
				End Site
				{
					OFFSET 0.000000 -2.449906 4.627600 
				}
			}
		}
	}
	JOINT rThigh
	{
		OFFSET -5.308129 -1.633274 1.361059 
		CHANNELS 3 Xrotation Zrotation Yrotation
		JOINT rShin
		{
			OFFSET 2.041588 -20.007561 0.000000 
			CHANNELS 3 Xrotation Zrotation Yrotation
			JOINT rFoot
			{
				OFFSET 0.000000 -19.190928 -1.224953 
				CHANNELS 3 Xrotation Yrotation Zrotation
				End Site
				{
					OFFSET 0.000000 -2.449906 4.627600 
				}
			}
		}
	}
}
MOTION
Frames: 18
Frame Time: 0.011111
3.170142 53.035519 -16.899551 1.990885 -9.300640 82.256371 17.771801 -1.204515 4.713688 -20.543848 -1.735522 1.320068 -12.335775 1.176128 -0.149531 22.573700 -8.886375 -1.259587 -13.725516 -13.189672 -3.762996 -52.376675 -19.328516 72.407471 -87.447952 3.296382 33.022366 8.524705 12.647240 -33.235729 8.354301 9.292459 -1.514610 60.398167 10.825888 47.941669 88.819862 -4.809691 34.311932 -8.534408 -12.637552 74.964699 -15.767917 2.694593 -0.016304 23.226727 -5.654048 -3.977788 -27.004686 -7.380254 -5.847717 -24.578022 -21.960829 -4.093523 42.766766 4.423428 6.392604 -24.395466 -14.806528 -3.310107 
3.075983 53.171169 -16.619627 2.252587 -9.339247 84.635803 17.510662 -1.380120 3.018975 -20.153389 -1.448737 0.880459 -12.450797 0.662205 -0.258654 22.478201 -8.087685 -1.482992 -13.725516 -13.189672 -3.762996 -52.784081 -21.233503 72.903442 -87.549828 3.431198 33.145058 8.524705 12.647240 -32.464245 8.354301 9.292459 -1.514610 59.007378 11.155501 47.179462 89.744949 -5.607282 34.972637 -8.534408 -12.637552 74.202988 -15.120958 2.410661 0.361563 21.674219 -5.708628 -3.770086 -26.708071 -9.205444 -6.817253 -22.937323 -22.761372 -3.290002 37.843708 4.813824 5.808220 -23.313612 -16.028828 -3.290635 
3.034488 53.220322 -16.239798 1.552870 -9.027960 86.688881 17.542641 -0.809768 1.952598 -19.596804 -1.256403 0.527778 -12.674246 0.303847 -0.381526 22.368946 -7.407247 -1.710803 -13.725516 -13.189672 -3.762996 -53.083862 -23.078890 73.096199 -87.655327 3.563131 33.257645 8.524705 12.647240 -31.263073 8.354301 9.292459 -1.514610 57.561577 11.894436 46.477734 90.797630 -6.383952 35.653450 -8.534408 -12.637552 74.251816 -14.340667 3.631498 0.996110 20.182171 -5.771356 -3.538882 -26.294931 -11.121266 -7.810430 -20.718931 -21.997805 -2.055899 33.446892 5.107209 5.275753 -21.833073 -17.234264 -3.096649 
2.917348 53.264374 -15.939444 1.253173 -9.330176 88.560120 17.024708 -0.466846 0.997751 -19.293774 -1.399544 0.234832 -12.888259 0.049347 -0.525528 22.368429 -6.721535 -1.954374 -13.725516 -13.189672 -3.762996 -53.262405 -24.600357 73.163841 -87.770340 3.701439 33.380791 8.524705 12.647240 -29.720102 8.354301 9.292459 -1.514610 56.259708 12.734322 45.438118 91.877632 -7.070473 36.292606 -8.534408 -12.637552 73.333839 -14.355074 4.336036 1.899412 18.957502 -5.821838 -3.368350 -25.618723 -13.476779 -9.004171 -19.760271 -21.673706 -0.996293 30.207689 5.301808 4.846163 -20.303276 -17.722164 -2.663145 
2.861810 53.277142 -15.618342 1.580635 -8.827432 90.665237 17.374523 -0.834846 -0.497418 -19.118166 -1.225186 -0.136349 -13.005243 -0.420230 -0.558004 22.263773 -5.926362 -2.029751 -13.725516 -13.189672 -3.762996 -53.437363 -25.942196 73.081032 -87.872696 3.822154 33.485374 8.524705 12.647240 -28.313854 8.354301 9.292459 -1.514610 54.908916 13.747458 44.009445 92.857002 -7.619556 36.830780 -8.534408 -12.637552 71.234238 -13.358576 4.082000 2.601995 17.976543 -5.852899 -3.225250 -25.062361 -16.061293 -10.317781 -17.898314 -22.067583 -0.716979 27.734364 5.439204 4.531407 -19.534033 -17.678761 -2.385113 
2.722964 53.335548 -15.315437 0.939965 -9.007498 91.647461 17.089022 -0.186567 -0.583936 -19.176565 -1.379464 -0.226656 -12.809703 -0.546827 -0.640050 21.768408 -5.688960 -2.182288 -13.725516 -13.189672 -3.762996 -53.706665 -26.994480 72.984413 -87.912338 3.870652 33.523140 8.524705 12.647240 -27.874399 8.354301 9.292459 -1.514610 53.613262 14.809686 42.280582 93.701462 -8.044284 37.282429 -8.534408 -12.637552 68.480331 -13.559595 5.300440 3.225645 17.127596 -5.869427 -3.121468 -24.330839 -17.645395 -10.997005 -17.625931 -20.858170 0.106610 27.132961 5.463224 4.464070 -20.283236 -18.422729 -2.830293 
2.705090 53.327892 -14.996892 0.956696 -8.765387 93.047318 16.971846 -0.319288 -1.194412 -19.049553 -1.404476 -0.376904 -12.711699 -0.734655 -0.768404 21.605997 -5.100855 -2.386134 -13.725516 -13.189672 -3.762996 -53.969288 -27.644409 72.831779 -87.919594 3.878640 33.532238 8.524705 12.647240 -28.011120 8.354301 9.292459 -1.514610 52.586285 15.888988 40.193493 94.300758 -8.321578 37.604488 -8.534408 -12.637552 65.013535 -12.944451 5.427313 3.468433 16.162897 -5.876843 -2.997088 -23.368231 -19.490509 -11.722138 -16.463421 -20.515814 -0.479697 27.031317 5.473845 4.457756 -21.859072 -19.393009 -3.663914 
2.588269 53.325020 -14.638128 0.826413 -8.680336 93.924126 17.031672 -0.511431 -1.359746 -19.215567 -1.443945 -0.403019 -12.632863 -0.894918 -0.953303 21.164351 -4.607889 -2.700371 -13.725516 -13.189672 -3.762996 -54.054867 -28.095469 72.496033 -87.981041 3.949590 33.579838 8.524705 12.647240 -27.864637 8.354301 9.292459 -1.514610 51.748394 17.062712 37.897118 94.669334 -8.485760 37.786659 -8.534408 -12.637552 61.429546 -12.929815 5.918146 3.336257 15.544927 -5.919299 -2.887238 -22.598866 -20.334770 -11.915099 -15.953986 -19.693438 -0.533125 27.382572 5.458766 4.494652 -24.094479 -19.916092 -4.721024 
2.502408 53.316406 -14.271705 0.600395 -8.705420 94.587753 16.798983 -0.646586 -1.303964 -19.156780 -1.561385 -0.378016 -12.563777 -1.019904 -1.116252 20.670694 -4.016943 -2.955646 -13.725516 -13.189672 -3.762996 -54.019623 -28.319162 71.932770 -88.073586 4.051732 33.675030 8.524705 12.647240 -27.825573 8.354301 9.292459 -1.514610 51.129684 18.304428 35.449696 94.866432 -8.569087 37.898064 -8.534408 -12.637552 58.245953 -12.960653 6.470150 2.840640 14.801589 -5.920328 -2.771547 -22.037966 -20.578154 -11.863848 -15.329999 -18.766869 -0.755746 27.049013 5.487756 4.451922 -26.057474 -20.425083 -5.727972 
2.438571 53.295658 -13.908152 0.735685 -8.626603 95.171005 16.657665 -1.187277 -1.261622 -19.009920 -1.757464 -0.318851 -12.426347 -1.272100 -1.322304 20.225048 -2.947445 -3.263343 -13.725516 -13.189672 -3.762996 -53.907963 -28.194256 71.174278 -88.166283 4.152727 33.761333 8.524705 12.647240 -28.167370 8.354301 9.292459 -1.514610 50.906013 19.488007 32.774673 94.847725 -8.559693 37.886818 -8.534408 -12.637552 55.003765 -12.651572 6.579438 2.303654 13.939681 -5.938398 -2.656841 -21.325783 -20.763441 -11.738650 -14.224463 -18.373325 -1.417562 25.734777 5.535726 4.267225 -27.416349 -21.090164 -6.554296 
2.369307 53.260223 -13.540452 1.067486 -8.470498 95.694870 16.655653 -1.987374 -1.182975 -19.068451 -1.809081 -0.220675 -12.043212 -1.384266 -1.663724 19.452839 -2.448459 -3.869679 -13.725516 -13.189672 -3.762996 -53.901562 -27.690033 70.314964 -88.288414 4.282532 33.856441 8.524705 12.647240 -28.606825 8.354301 9.292459 -1.514610 50.959164 20.499794 29.921856 94.631004 -8.468605 37.774075 -8.534408 -12.637552 51.273296 -12.254086 6.463912 1.824527 13.168894 -5.948119 -2.549091 -20.401237 -21.124506 -11.603739 -12.839174 -18.325808 -2.533170 23.838892 5.613506 4.015711 -28.263565 -21.689936 -7.154840 
2.288554 53.212990 -13.145621 1.071905 -8.386058 96.042686 16.658394 -2.535023 -0.811201 -19.469250 -1.657051 -0.058677 -11.738890 -1.557271 -1.921957 19.314798 -1.964085 -4.347947 -13.725516 -13.189672 -3.762996 -54.145473 -26.767891 69.319153 -88.434937 4.434439 33.991070 8.524705 12.647240 -29.026743 8.354301 9.292459 -1.514610 51.324242 21.226206 27.008316 94.299339 -8.322310 37.594849 -8.534408 -12.637552 47.376816 -12.186652 6.835470 1.269503 12.562934 -5.957596 -2.466027 -19.113256 -21.441385 -11.322701 -11.559399 -17.826307 -3.625677 22.022699 5.691390 3.769588 -29.405003 -22.060795 -7.842041 
2.058103 53.262459 -12.917403 2.180952 -8.926901 96.283127 16.518082 -3.841998 -0.715813 -19.869291 -2.088862 0.104188 -11.571569 -1.788260 -2.157150 18.747877 -1.113207 -4.753602 -13.725516 -13.189672 -3.762996 -54.025146 -26.018476 68.104530 -88.561172 4.560636 34.087482 8.524705 12.647240 -28.684946 8.354301 9.292459 -1.514610 52.264580 22.115982 24.135408 93.875610 -8.125738 37.380318 -8.534408 -12.637552 43.743999 -12.971232 5.485054 1.726971 13.382155 -5.947895 -2.597719 -17.837322 -22.922657 -11.512732 -11.512440 -19.176760 -5.718219 21.010977 5.741060 3.637987 -29.897463 -21.303202 -7.827214 
2.082361 53.120422 -12.317657 1.397720 -8.416323 96.329788 16.663555 -4.070573 0.122832 -19.674330 -1.741303 0.346432 -11.582362 -2.431235 -2.373824 18.192059 0.073621 -5.212241 -13.725516 -13.189672 -3.762996 -53.858524 -25.360023 66.750793 -88.637451 4.634196 34.155468 8.524705 12.647240 -27.610731 8.354301 9.292459 -1.514610 53.397018 22.954250 21.411671 93.396347 -7.895118 37.125713 -8.534408 -12.637552 40.277206 -13.664775 7.661686 2.500587 14.419446 -5.926583 -2.747523 -17.040134 -24.023243 -11.689236 -10.162706 -17.151768 -4.159723 19.558142 5.790133 3.427074 -32.252632 -22.024693 -9.288310 
1.979903 53.072220 -11.874309 1.009864 -8.298578 96.458252 16.713186 -4.243824 1.013944 -19.732769 -1.910587 0.609549 -11.413985 -2.670004 -2.710012 17.724066 0.754497 -5.838754 -13.725516 -13.189672 -3.762996 -53.652500 -24.663532 65.445045 -88.674881 4.670962 34.184635 8.524705 12.647240 -26.350964 8.354301 9.292459 -1.514610 54.866653 23.722151 18.933981 92.783577 -7.578132 36.788315 -8.534408 -12.637552 37.845562 -14.867085 8.482860 1.492046 16.030317 -5.900516 -2.968136 -17.550619 -23.297018 -11.559273 -9.628532 -16.219372 -4.035839 18.893076 5.799624 3.339435 -32.528599 -22.040390 -9.432622 
1.843611 53.068394 -11.467666 0.619797 -8.335780 96.531570 16.626833 -4.323342 2.169483 -19.829948 -2.362512 0.919798 -10.990484 -2.887069 -3.130428 16.911137 1.368125 -6.651609 -13.725516 -13.189672 -3.762996 -53.397354 -23.746641 64.210709 -88.668556 4.663352 34.184464 8.524705 12.647240 -25.188854 8.354301 9.292459 -1.514610 56.730900 24.370739 16.331142 92.151886 -7.230355 36.442314 -8.534408 -12.637552 35.023293 -16.316660 9.198430 0.531256 17.780991 -5.852734 -3.217293 -18.219790 -22.328827 -11.404094 -9.636515 -15.493982 -4.541269 18.802004 5.795484 3.340642 -32.014011 -21.773108 -9.079395 
1.690083 53.078609 -11.081773 0.092875 -8.423310 96.654991 16.547026 -4.159611 3.349397 -19.995453 -2.909563 1.234039 -10.683748 -3.040551 -3.520469 16.371075 1.994032 -7.388017 -13.725516 -13.189672 -3.762996 -53.190380 -22.650534 62.893852 -88.599579 4.597639 34.126328 8.524705 12.647240 -24.300184 8.354301 9.292459 -1.514610 58.799541 24.876322 14.208256 91.389214 -6.772813 36.007706 -8.534408 -12.637552 33.216656 -17.862972 9.917456 -0.617423 19.393795 -5.791372 -3.441449 -18.534142 -21.136305 -10.986004 -9.880036 -14.701935 -5.397504 19.038679 5.789707 3.360904 -31.467836 -21.407093 -8.656406 
1.555387 53.073502 -10.689176 -0.772918 -8.381862 96.866394 16.492722 -3.601606 4.555130 -20.112331 -3.299534 1.500820 -10.491112 -2.972859 -3.977827 15.878715 1.917373 -8.294232 -13.725516 -13.189672 -3.762996 -53.166012 -21.423628 61.498634 -88.494270 4.494142 34.039185 8.524705 12.647240 -23.606825 8.354301 9.292459 -1.514610 60.768181 25.374287 12.307483 90.596786 -6.245827 35.520752 -8.534408 -12.637552 31.185408 -19.819050 10.866498 -2.073081 21.827061 -5.701983 -3.792734 -18.840601 -19.536915 -10.409853 -9.977805 -13.471908 -6.293086 19.364357 5.790553 3.409511 -31.246422 -21.006668 -8.388676 
